<svg width="18" height="16" viewBox="0 0 18 16" fill="none" xmlns="http://www.w3.org/2000/svg">
<path d="M10.5625 5.625C10.1875 5.40625 9.75 5.53125 9.53125 5.90625C9.34375 6.28125 9.46875 6.71875 9.84375 6.9375C10.2188 7.15625 10.5 7.5625 10.5 8C10.5 8.46875 10.2188 8.875 9.84375 9.09375C9.46875 9.3125 9.34375 9.75 9.53125 10.125C9.75 10.5 10.1875 10.625 10.5625 10.4062C11.4375 9.9375 12 9 12 8C12 7.03125 11.4375 6.09375 10.5625 5.625ZM15 8C15 6.03125 13.9688 4.21875 12.3125 3.15625C11.9688 2.9375 11.5 3.0625 11.2812 3.40625C11.0625 3.75 11.1562 4.21875 11.5 4.4375C12.75 5.21875 13.5 6.5625 13.5 8C13.5 9.46875 12.75 10.8125 11.5 11.5938C11.1562 11.8125 11.0625 12.2812 11.2812 12.625C11.4688 12.9688 11.9375 13.0938 12.3125 12.875C13.9688 11.8125 15 10 15 8ZM14 0.625C13.6562 0.40625 13.1875 0.5 12.9375 0.84375C12.7188 1.21875 12.8125 1.6875 13.1562 1.90625C15.25 3.25 16.4688 5.5625 16.4688 8C16.4688 10.4688 15.25 12.7812 13.1562 14.125C12.8125 14.3438 12.7188 14.8125 12.9375 15.1875C13.1562 15.5 13.625 15.625 14 15.4062C16.5 13.75 18 11 18 8C18 5.03125 16.5 2.28125 14 0.625ZM7.21875 2C7.03125 2 6.84375 2.09375 6.71875 2.25L3.9375 5H0.75C0.3125 5 0 5.34375 0 5.75V10.25C0 10.6875 0.3125 11 0.75 11H3.9375L6.71875 13.7812C6.84375 13.9375 7.03125 14 7.21875 14C7.625 14 8 13.7188 8 13.25V2.78125C8 2.3125 7.625 2 7.21875 2ZM6.5 11.4688L4.53125 9.5H1.5V6.5H4.53125L6.5 4.5625V11.4688Z" fill="white" fill-opacity="0.7"/>
</svg>
